<mxfile host="app.diagrams.net" modified="2023-12-27T10:22:47.138Z" agent="Mozilla/5.0 (Windows NT 10.0; Win64; x64; rv:121.0) Gecko/20100101 Firefox/121.0" etag="dJ2GrG4ETe04OnmKLMhV" version="22.1.11" type="google">
  <diagram name="Page-1" id="2YBvvXClWsGukQMizWep">
    <mxGraphModel grid="1" page="1" gridSize="10" guides="1" tooltips="1" connect="1" arrows="1" fold="1" pageScale="1" pageWidth="850" pageHeight="1100" math="0" shadow="0">
      <root>
        <mxCell id="0" />
        <mxCell id="1" parent="0" />
        <mxCell id="aM9ryv3xv72pqoxQDRHE-1" value="client browser" style="shape=umlLifeline;perimeter=lifelinePerimeter;whiteSpace=wrap;html=1;container=0;dropTarget=0;collapsible=0;recursiveResize=0;outlineConnect=0;portConstraint=eastwest;newEdgeStyle={&quot;edgeStyle&quot;:&quot;elbowEdgeStyle&quot;,&quot;elbow&quot;:&quot;vertical&quot;,&quot;curved&quot;:0,&quot;rounded&quot;:0};" vertex="1" parent="1">
          <mxGeometry x="40" y="40" width="80" height="300" as="geometry" />
        </mxCell>
        <mxCell id="aM9ryv3xv72pqoxQDRHE-2" value="" style="html=1;points=[];perimeter=orthogonalPerimeter;outlineConnect=0;targetShapes=umlLifeline;portConstraint=eastwest;newEdgeStyle={&quot;edgeStyle&quot;:&quot;elbowEdgeStyle&quot;,&quot;elbow&quot;:&quot;vertical&quot;,&quot;curved&quot;:0,&quot;rounded&quot;:0};" vertex="1" parent="aM9ryv3xv72pqoxQDRHE-1">
          <mxGeometry x="35" y="70" width="10" height="220" as="geometry" />
        </mxCell>
        <mxCell id="aM9ryv3xv72pqoxQDRHE-5" value="Api Gateway" style="shape=umlLifeline;perimeter=lifelinePerimeter;whiteSpace=wrap;html=1;container=0;dropTarget=0;collapsible=0;recursiveResize=0;outlineConnect=0;portConstraint=eastwest;newEdgeStyle={&quot;edgeStyle&quot;:&quot;elbowEdgeStyle&quot;,&quot;elbow&quot;:&quot;vertical&quot;,&quot;curved&quot;:0,&quot;rounded&quot;:0};" vertex="1" parent="1">
          <mxGeometry x="150" y="40" width="90" height="300" as="geometry" />
        </mxCell>
        <mxCell id="aM9ryv3xv72pqoxQDRHE-6" value="" style="html=1;points=[];perimeter=orthogonalPerimeter;outlineConnect=0;targetShapes=umlLifeline;portConstraint=eastwest;newEdgeStyle={&quot;edgeStyle&quot;:&quot;elbowEdgeStyle&quot;,&quot;elbow&quot;:&quot;vertical&quot;,&quot;curved&quot;:0,&quot;rounded&quot;:0};" vertex="1" parent="aM9ryv3xv72pqoxQDRHE-5">
          <mxGeometry x="40" y="80" width="10" height="190" as="geometry" />
        </mxCell>
        <mxCell id="HZk4rTwjZ4kwQyeEV5jg-59" value="" style="html=1;points=[[0,0,0,0,5],[0,1,0,0,-5],[1,0,0,0,5],[1,1,0,0,-5]];perimeter=orthogonalPerimeter;outlineConnect=0;targetShapes=umlLifeline;portConstraint=eastwest;newEdgeStyle={&quot;curved&quot;:0,&quot;rounded&quot;:0};" vertex="1" parent="aM9ryv3xv72pqoxQDRHE-5">
          <mxGeometry x="50" y="90" width="10" height="40" as="geometry" />
        </mxCell>
        <mxCell id="HZk4rTwjZ4kwQyeEV5jg-60" value="checkAuth" style="html=1;align=left;spacingLeft=2;endArrow=block;rounded=0;edgeStyle=orthogonalEdgeStyle;curved=0;rounded=0;" edge="1" parent="aM9ryv3xv72pqoxQDRHE-5" target="HZk4rTwjZ4kwQyeEV5jg-59">
          <mxGeometry relative="1" as="geometry">
            <mxPoint x="55" y="100" as="sourcePoint" />
            <Array as="points">
              <mxPoint x="55" y="100" />
              <mxPoint x="85" y="100" />
              <mxPoint x="85" y="120" />
            </Array>
          </mxGeometry>
        </mxCell>
        <mxCell id="aM9ryv3xv72pqoxQDRHE-7" value="uri:tournament/idT/createB?params" style="html=1;verticalAlign=bottom;endArrow=block;edgeStyle=elbowEdgeStyle;elbow=vertical;curved=0;rounded=0;" edge="1" parent="1" source="aM9ryv3xv72pqoxQDRHE-2" target="aM9ryv3xv72pqoxQDRHE-6">
          <mxGeometry x="0.1579" y="10" relative="1" as="geometry">
            <mxPoint x="195" y="130" as="sourcePoint" />
            <Array as="points">
              <mxPoint x="180" y="120" />
            </Array>
            <mxPoint as="offset" />
          </mxGeometry>
        </mxCell>
        <mxCell id="aM9ryv3xv72pqoxQDRHE-8" value="resp" style="html=1;verticalAlign=bottom;endArrow=open;dashed=1;endSize=8;edgeStyle=elbowEdgeStyle;elbow=vertical;curved=0;rounded=0;" edge="1" parent="1">
          <mxGeometry relative="1" as="geometry">
            <mxPoint x="80" y="300" as="targetPoint" />
            <Array as="points">
              <mxPoint x="135" y="300" />
            </Array>
            <mxPoint x="185" y="300" as="sourcePoint" />
          </mxGeometry>
        </mxCell>
        <mxCell id="HZk4rTwjZ4kwQyeEV5jg-1" value="create batle" style="text;html=1;align=center;verticalAlign=middle;resizable=0;points=[];autosize=1;strokeColor=none;fillColor=none;" vertex="1" parent="1">
          <mxGeometry x="75" y="-2" width="90" height="30" as="geometry" />
        </mxCell>
        <mxCell id="HZk4rTwjZ4kwQyeEV5jg-3" value="BattleService" style="shape=umlLifeline;perimeter=lifelinePerimeter;whiteSpace=wrap;html=1;container=1;dropTarget=0;collapsible=0;recursiveResize=0;outlineConnect=0;portConstraint=eastwest;newEdgeStyle={&quot;curved&quot;:0,&quot;rounded&quot;:0};" vertex="1" parent="1">
          <mxGeometry x="260" y="40" width="70" height="300" as="geometry" />
        </mxCell>
        <mxCell id="HZk4rTwjZ4kwQyeEV5jg-7" value="" style="html=1;points=[[0,0,0,0,5],[0,1,0,0,-5],[1,0,0,0,5],[1,1,0,0,-5]];perimeter=orthogonalPerimeter;outlineConnect=0;targetShapes=umlLifeline;portConstraint=eastwest;newEdgeStyle={&quot;curved&quot;:0,&quot;rounded&quot;:0};" vertex="1" parent="HZk4rTwjZ4kwQyeEV5jg-3">
          <mxGeometry x="30" y="90" width="10" height="160" as="geometry" />
        </mxCell>
        <mxCell id="HZk4rTwjZ4kwQyeEV5jg-4" value="data DBMS" style="shape=umlLifeline;perimeter=lifelinePerimeter;whiteSpace=wrap;html=1;container=1;dropTarget=0;collapsible=0;recursiveResize=0;outlineConnect=0;portConstraint=eastwest;newEdgeStyle={&quot;curved&quot;:0,&quot;rounded&quot;:0};" vertex="1" parent="1">
          <mxGeometry x="370" y="40" width="70" height="300" as="geometry" />
        </mxCell>
        <mxCell id="HZk4rTwjZ4kwQyeEV5jg-23" value="" style="html=1;points=[[0,0,0,0,5],[0,1,0,0,-5],[1,0,0,0,5],[1,1,0,0,-5]];perimeter=orthogonalPerimeter;outlineConnect=0;targetShapes=umlLifeline;portConstraint=eastwest;newEdgeStyle={&quot;curved&quot;:0,&quot;rounded&quot;:0};" vertex="1" parent="HZk4rTwjZ4kwQyeEV5jg-4">
          <mxGeometry x="30" y="150" width="10" height="80" as="geometry" />
        </mxCell>
        <mxCell id="HZk4rTwjZ4kwQyeEV5jg-8" value="uri " style="html=1;verticalAlign=bottom;endArrow=block;curved=0;rounded=0;" edge="1" parent="1" source="aM9ryv3xv72pqoxQDRHE-6" target="HZk4rTwjZ4kwQyeEV5jg-7">
          <mxGeometry relative="1" as="geometry">
            <mxPoint x="220" y="135" as="sourcePoint" />
            <Array as="points">
              <mxPoint x="240" y="190" />
            </Array>
          </mxGeometry>
        </mxCell>
        <mxCell id="HZk4rTwjZ4kwQyeEV5jg-14" style="edgeStyle=orthogonalEdgeStyle;rounded=0;orthogonalLoop=1;jettySize=auto;html=1;curved=0;exitX=1;exitY=0;exitDx=0;exitDy=5;exitPerimeter=0;" edge="1" parent="1" source="HZk4rTwjZ4kwQyeEV5jg-7" target="HZk4rTwjZ4kwQyeEV5jg-23">
          <mxGeometry relative="1" as="geometry">
            <mxPoint x="375" y="150" as="targetPoint" />
            <Array as="points">
              <mxPoint x="300" y="200" />
            </Array>
          </mxGeometry>
        </mxCell>
        <mxCell id="HZk4rTwjZ4kwQyeEV5jg-18" value="addBattle(idT)" style="edgeLabel;html=1;align=center;verticalAlign=middle;resizable=0;points=[];" connectable="0" vertex="1" parent="HZk4rTwjZ4kwQyeEV5jg-14">
          <mxGeometry x="0.2046" y="-3" relative="1" as="geometry">
            <mxPoint y="-13" as="offset" />
          </mxGeometry>
        </mxCell>
        <mxCell id="HZk4rTwjZ4kwQyeEV5jg-19" value="&lt;div&gt;source&lt;/div&gt;&lt;div&gt;DBMS&lt;/div&gt;" style="shape=umlLifeline;perimeter=lifelinePerimeter;whiteSpace=wrap;html=1;container=1;dropTarget=0;collapsible=0;recursiveResize=0;outlineConnect=0;portConstraint=eastwest;newEdgeStyle={&quot;curved&quot;:0,&quot;rounded&quot;:0};" vertex="1" parent="1">
          <mxGeometry x="460" y="40" width="60" height="300" as="geometry" />
        </mxCell>
        <mxCell id="HZk4rTwjZ4kwQyeEV5jg-24" value="" style="html=1;points=[[0,0,0,0,5],[0,1,0,0,-5],[1,0,0,0,5],[1,1,0,0,-5]];perimeter=orthogonalPerimeter;outlineConnect=0;targetShapes=umlLifeline;portConstraint=eastwest;newEdgeStyle={&quot;curved&quot;:0,&quot;rounded&quot;:0};" vertex="1" parent="HZk4rTwjZ4kwQyeEV5jg-19">
          <mxGeometry x="25" y="140" width="10" height="80" as="geometry" />
        </mxCell>
        <mxCell id="HZk4rTwjZ4kwQyeEV5jg-25" style="edgeStyle=orthogonalEdgeStyle;rounded=0;orthogonalLoop=1;jettySize=auto;html=1;curved=0;endArrow=open;endFill=0;dashed=1;" edge="1" parent="1" source="HZk4rTwjZ4kwQyeEV5jg-23" target="HZk4rTwjZ4kwQyeEV5jg-3">
          <mxGeometry relative="1" as="geometry">
            <mxPoint x="400" y="200" as="sourcePoint" />
            <Array as="points">
              <mxPoint x="320" y="190" />
              <mxPoint x="320" y="190" />
            </Array>
          </mxGeometry>
        </mxCell>
        <mxCell id="HZk4rTwjZ4kwQyeEV5jg-26" style="edgeStyle=orthogonalEdgeStyle;rounded=0;orthogonalLoop=1;jettySize=auto;html=1;curved=0;exitX=0;exitY=1;exitDx=0;exitDy=-5;exitPerimeter=0;dashed=1;endArrow=open;endFill=0;" edge="1" parent="1" source="HZk4rTwjZ4kwQyeEV5jg-24">
          <mxGeometry relative="1" as="geometry">
            <mxPoint x="300" y="240" as="targetPoint" />
            <Array as="points">
              <mxPoint x="485" y="240" />
              <mxPoint x="300" y="240" />
            </Array>
          </mxGeometry>
        </mxCell>
        <mxCell id="HZk4rTwjZ4kwQyeEV5jg-28" style="edgeStyle=orthogonalEdgeStyle;rounded=0;orthogonalLoop=1;jettySize=auto;html=1;curved=0;exitX=1;exitY=0;exitDx=0;exitDy=5;exitPerimeter=0;" edge="1" parent="1" target="HZk4rTwjZ4kwQyeEV5jg-19">
          <mxGeometry relative="1" as="geometry">
            <mxPoint x="300" y="160" as="sourcePoint" />
            <mxPoint x="405" y="175" as="targetPoint" />
            <Array as="points">
              <mxPoint x="300" y="220" />
            </Array>
          </mxGeometry>
        </mxCell>
        <mxCell id="HZk4rTwjZ4kwQyeEV5jg-30" value="addBattleTestCases()" style="edgeLabel;html=1;align=center;verticalAlign=middle;resizable=0;points=[];" connectable="0" vertex="1" parent="HZk4rTwjZ4kwQyeEV5jg-28">
          <mxGeometry x="-0.022" y="8" relative="1" as="geometry">
            <mxPoint as="offset" />
          </mxGeometry>
        </mxCell>
        <mxCell id="HZk4rTwjZ4kwQyeEV5jg-9" value="&lt;div&gt;resp:200+&lt;/div&gt;&lt;div&gt;hypertxt&lt;/div&gt;&lt;div&gt;tourn/idT/battle&lt;br&gt;&lt;/div&gt;" style="html=1;verticalAlign=bottom;endArrow=open;dashed=1;endSize=8;curved=0;rounded=0;exitX=0;exitY=1;exitDx=0;exitDy=-5;" edge="1" parent="1" source="HZk4rTwjZ4kwQyeEV5jg-7" target="aM9ryv3xv72pqoxQDRHE-6">
          <mxGeometry relative="1" as="geometry">
            <mxPoint x="220" y="205" as="targetPoint" />
          </mxGeometry>
        </mxCell>
        <mxCell id="HZk4rTwjZ4kwQyeEV5jg-31" value="clientBrowser" style="shape=umlLifeline;perimeter=lifelinePerimeter;whiteSpace=wrap;html=1;container=1;dropTarget=0;collapsible=0;recursiveResize=0;outlineConnect=0;portConstraint=eastwest;newEdgeStyle={&quot;curved&quot;:0,&quot;rounded&quot;:0};" vertex="1" parent="1">
          <mxGeometry x="2270" y="92" width="80" height="300" as="geometry" />
        </mxCell>
        <mxCell id="HZk4rTwjZ4kwQyeEV5jg-45" value="" style="html=1;points=[[0,0,0,0,5],[0,1,0,0,-5],[1,0,0,0,5],[1,1,0,0,-5]];perimeter=orthogonalPerimeter;outlineConnect=0;targetShapes=umlLifeline;portConstraint=eastwest;newEdgeStyle={&quot;curved&quot;:0,&quot;rounded&quot;:0};" vertex="1" parent="HZk4rTwjZ4kwQyeEV5jg-31">
          <mxGeometry x="35" y="80" width="10" height="170" as="geometry" />
        </mxCell>
        <mxCell id="HZk4rTwjZ4kwQyeEV5jg-32" value="API gateway" style="shape=umlLifeline;perimeter=lifelinePerimeter;whiteSpace=wrap;html=1;container=1;dropTarget=0;collapsible=0;recursiveResize=0;outlineConnect=0;portConstraint=eastwest;newEdgeStyle={&quot;curved&quot;:0,&quot;rounded&quot;:0};" vertex="1" parent="1">
          <mxGeometry x="2375" y="92" width="100" height="300" as="geometry" />
        </mxCell>
        <mxCell id="HZk4rTwjZ4kwQyeEV5jg-61" value="" style="html=1;points=[[0,0,0,0,5],[0,1,0,0,-5],[1,0,0,0,5],[1,1,0,0,-5]];perimeter=orthogonalPerimeter;outlineConnect=0;targetShapes=umlLifeline;portConstraint=eastwest;newEdgeStyle={&quot;curved&quot;:0,&quot;rounded&quot;:0};" vertex="1" parent="HZk4rTwjZ4kwQyeEV5jg-32">
          <mxGeometry x="50" y="110" width="10" height="40" as="geometry" />
        </mxCell>
        <mxCell id="HZk4rTwjZ4kwQyeEV5jg-62" value="checkAuth" style="html=1;align=left;spacingLeft=2;endArrow=block;rounded=0;edgeStyle=orthogonalEdgeStyle;curved=0;rounded=0;" edge="1" parent="HZk4rTwjZ4kwQyeEV5jg-32" target="HZk4rTwjZ4kwQyeEV5jg-61">
          <mxGeometry relative="1" as="geometry">
            <mxPoint x="50" y="100" as="sourcePoint" />
            <Array as="points">
              <mxPoint x="90" y="130" />
            </Array>
          </mxGeometry>
        </mxCell>
        <mxCell id="HZk4rTwjZ4kwQyeEV5jg-33" value="Data dbms" style="shape=umlLifeline;perimeter=lifelinePerimeter;whiteSpace=wrap;html=1;container=1;dropTarget=0;collapsible=0;recursiveResize=0;outlineConnect=0;portConstraint=eastwest;newEdgeStyle={&quot;curved&quot;:0,&quot;rounded&quot;:0};" vertex="1" parent="1">
          <mxGeometry x="2595" y="92" width="100" height="300" as="geometry" />
        </mxCell>
        <mxCell id="HZk4rTwjZ4kwQyeEV5jg-53" value="" style="html=1;points=[[0,0,0,0,5],[0,1,0,0,-5],[1,0,0,0,5],[1,1,0,0,-5]];perimeter=orthogonalPerimeter;outlineConnect=0;targetShapes=umlLifeline;portConstraint=eastwest;newEdgeStyle={&quot;curved&quot;:0,&quot;rounded&quot;:0};" vertex="1" parent="HZk4rTwjZ4kwQyeEV5jg-33">
          <mxGeometry x="45" y="150" width="10" height="60" as="geometry" />
        </mxCell>
        <mxCell id="HZk4rTwjZ4kwQyeEV5jg-54" value="addTournamtn()" style="html=1;verticalAlign=bottom;endArrow=block;curved=0;rounded=0;" edge="1" parent="HZk4rTwjZ4kwQyeEV5jg-33" source="HZk4rTwjZ4kwQyeEV5jg-46" target="HZk4rTwjZ4kwQyeEV5jg-53">
          <mxGeometry relative="1" as="geometry">
            <mxPoint x="-30" y="105" as="sourcePoint" />
            <Array as="points">
              <mxPoint y="180" />
            </Array>
          </mxGeometry>
        </mxCell>
        <mxCell id="HZk4rTwjZ4kwQyeEV5jg-55" value="ok" style="html=1;verticalAlign=bottom;endArrow=open;dashed=1;endSize=8;curved=0;rounded=0;exitX=0;exitY=1;exitDx=0;exitDy=-5;" edge="1" parent="HZk4rTwjZ4kwQyeEV5jg-33" source="HZk4rTwjZ4kwQyeEV5jg-53" target="HZk4rTwjZ4kwQyeEV5jg-46">
          <mxGeometry relative="1" as="geometry">
            <mxPoint x="-30" y="175" as="targetPoint" />
          </mxGeometry>
        </mxCell>
        <mxCell id="HZk4rTwjZ4kwQyeEV5jg-34" value="&lt;div&gt;Tournament&lt;/div&gt;&lt;div&gt;Service&lt;/div&gt;" style="shape=umlLifeline;perimeter=lifelinePerimeter;whiteSpace=wrap;html=1;container=1;dropTarget=0;collapsible=0;recursiveResize=0;outlineConnect=0;portConstraint=eastwest;newEdgeStyle={&quot;curved&quot;:0,&quot;rounded&quot;:0};" vertex="1" parent="1">
          <mxGeometry x="2485" y="92" width="100" height="300" as="geometry" />
        </mxCell>
        <mxCell id="HZk4rTwjZ4kwQyeEV5jg-46" value="" style="html=1;points=[[0,0,0,0,5],[0,1,0,0,-5],[1,0,0,0,5],[1,1,0,0,-5]];perimeter=orthogonalPerimeter;outlineConnect=0;targetShapes=umlLifeline;portConstraint=eastwest;newEdgeStyle={&quot;curved&quot;:0,&quot;rounded&quot;:0};" vertex="1" parent="HZk4rTwjZ4kwQyeEV5jg-34">
          <mxGeometry x="45" y="115" width="10" height="145" as="geometry" />
        </mxCell>
        <mxCell id="HZk4rTwjZ4kwQyeEV5jg-42" value="" style="html=1;points=[[0,0,0,0,5],[0,1,0,0,-5],[1,0,0,0,5],[1,1,0,0,-5]];perimeter=orthogonalPerimeter;outlineConnect=0;targetShapes=umlLifeline;portConstraint=eastwest;newEdgeStyle={&quot;curved&quot;:0,&quot;rounded&quot;:0};" vertex="1" parent="1">
          <mxGeometry x="2420" y="182" width="10" height="170" as="geometry" />
        </mxCell>
        <mxCell id="HZk4rTwjZ4kwQyeEV5jg-41" value="closeTournament" style="text;html=1;align=center;verticalAlign=middle;resizable=0;points=[];autosize=1;strokeColor=none;fillColor=none;" vertex="1" parent="1">
          <mxGeometry x="2270" y="40" width="110" height="30" as="geometry" />
        </mxCell>
        <mxCell id="HZk4rTwjZ4kwQyeEV5jg-43" value="uri:tournamnt/idT/close?param" style="html=1;verticalAlign=bottom;endArrow=block;curved=0;rounded=0;entryX=0;entryY=0;entryDx=0;entryDy=5;" edge="1" parent="1" source="HZk4rTwjZ4kwQyeEV5jg-31" target="HZk4rTwjZ4kwQyeEV5jg-42">
          <mxGeometry relative="1" as="geometry">
            <mxPoint x="2345" y="187" as="sourcePoint" />
          </mxGeometry>
        </mxCell>
        <mxCell id="HZk4rTwjZ4kwQyeEV5jg-49" value="" style="html=1;verticalAlign=bottom;endArrow=open;dashed=1;endSize=8;curved=0;rounded=0;exitX=0;exitY=1;exitDx=0;exitDy=-5;" edge="1" parent="1">
          <mxGeometry relative="1" as="geometry">
            <mxPoint x="2430" y="322" as="targetPoint" />
            <mxPoint x="2530" y="322" as="sourcePoint" />
          </mxGeometry>
        </mxCell>
        <mxCell id="HZk4rTwjZ4kwQyeEV5jg-77" value="&lt;div&gt;resp:200+&lt;/div&gt;&lt;div&gt;hypTxt(tourn/)&lt;br&gt;&lt;/div&gt;" style="edgeLabel;html=1;align=center;verticalAlign=middle;resizable=0;points=[];" connectable="0" vertex="1" parent="HZk4rTwjZ4kwQyeEV5jg-49">
          <mxGeometry x="0.24" y="-1" relative="1" as="geometry">
            <mxPoint x="17" y="-19" as="offset" />
          </mxGeometry>
        </mxCell>
        <mxCell id="HZk4rTwjZ4kwQyeEV5jg-63" value="uri" style="html=1;verticalAlign=bottom;endArrow=block;curved=0;rounded=0;" edge="1" parent="1" source="HZk4rTwjZ4kwQyeEV5jg-61" target="HZk4rTwjZ4kwQyeEV5jg-34">
          <mxGeometry width="80" relative="1" as="geometry">
            <mxPoint x="2430" y="262" as="sourcePoint" />
            <mxPoint x="2510" y="262" as="targetPoint" />
            <Array as="points">
              <mxPoint x="2485" y="242" />
            </Array>
          </mxGeometry>
        </mxCell>
        <mxCell id="HZk4rTwjZ4kwQyeEV5jg-64" value="mesageBroker" style="shape=umlLifeline;perimeter=lifelinePerimeter;whiteSpace=wrap;html=1;container=1;dropTarget=0;collapsible=0;recursiveResize=0;outlineConnect=0;portConstraint=eastwest;newEdgeStyle={&quot;curved&quot;:0,&quot;rounded&quot;:0};" vertex="1" parent="1">
          <mxGeometry x="2705" y="92" width="80" height="300" as="geometry" />
        </mxCell>
        <mxCell id="HZk4rTwjZ4kwQyeEV5jg-66" value="" style="html=1;points=[[0,0,0,0,5],[0,1,0,0,-5],[1,0,0,0,5],[1,1,0,0,-5]];perimeter=orthogonalPerimeter;outlineConnect=0;targetShapes=umlLifeline;portConstraint=eastwest;newEdgeStyle={&quot;curved&quot;:0,&quot;rounded&quot;:0};" vertex="1" parent="HZk4rTwjZ4kwQyeEV5jg-64">
          <mxGeometry x="35" y="180" width="10" height="80" as="geometry" />
        </mxCell>
        <mxCell id="HZk4rTwjZ4kwQyeEV5jg-68" value="write(topicTour, msg)" style="html=1;verticalAlign=bottom;endArrow=open;curved=0;rounded=0;endFill=0;" edge="1" parent="1" source="HZk4rTwjZ4kwQyeEV5jg-46" target="HZk4rTwjZ4kwQyeEV5jg-64">
          <mxGeometry x="0.3203" width="80" relative="1" as="geometry">
            <mxPoint x="2435" y="272" as="sourcePoint" />
            <mxPoint x="2515" y="272" as="targetPoint" />
            <Array as="points">
              <mxPoint x="2635" y="312" />
            </Array>
            <mxPoint as="offset" />
          </mxGeometry>
        </mxCell>
        <mxCell id="HZk4rTwjZ4kwQyeEV5jg-70" value="notification service" style="shape=umlLifeline;perimeter=lifelinePerimeter;whiteSpace=wrap;html=1;container=1;dropTarget=0;collapsible=0;recursiveResize=0;outlineConnect=0;portConstraint=eastwest;newEdgeStyle={&quot;curved&quot;:0,&quot;rounded&quot;:0};" vertex="1" parent="1">
          <mxGeometry x="2800" y="92" width="100" height="300" as="geometry" />
        </mxCell>
        <mxCell id="HZk4rTwjZ4kwQyeEV5jg-71" value="" style="html=1;points=[[0,0,0,0,5],[0,1,0,0,-5],[1,0,0,0,5],[1,1,0,0,-5]];perimeter=orthogonalPerimeter;outlineConnect=0;targetShapes=umlLifeline;portConstraint=eastwest;newEdgeStyle={&quot;curved&quot;:0,&quot;rounded&quot;:0};" vertex="1" parent="HZk4rTwjZ4kwQyeEV5jg-70">
          <mxGeometry x="45" y="230" width="10" height="40" as="geometry" />
        </mxCell>
        <mxCell id="HZk4rTwjZ4kwQyeEV5jg-72" value="read(topicTour)" style="html=1;verticalAlign=bottom;endArrow=none;curved=0;rounded=0;entryX=0;entryY=0;entryDx=0;entryDy=5;endFill=0;startArrow=classic;startFill=1;" edge="1" parent="1" source="HZk4rTwjZ4kwQyeEV5jg-66" target="HZk4rTwjZ4kwQyeEV5jg-71">
          <mxGeometry relative="1" as="geometry">
            <mxPoint x="2775" y="277" as="sourcePoint" />
          </mxGeometry>
        </mxCell>
        <mxCell id="HZk4rTwjZ4kwQyeEV5jg-73" value="msg" style="html=1;verticalAlign=bottom;endArrow=none;dashed=1;endSize=8;curved=0;rounded=0;startArrow=open;startFill=0;endFill=0;" edge="1" parent="1" source="HZk4rTwjZ4kwQyeEV5jg-71" target="HZk4rTwjZ4kwQyeEV5jg-64">
          <mxGeometry relative="1" as="geometry">
            <mxPoint x="2775" y="347" as="targetPoint" />
            <Array as="points">
              <mxPoint x="2795" y="342" />
            </Array>
          </mxGeometry>
        </mxCell>
        <mxCell id="HZk4rTwjZ4kwQyeEV5jg-74" value="email service" style="shape=umlLifeline;perimeter=lifelinePerimeter;whiteSpace=wrap;html=1;container=1;dropTarget=0;collapsible=0;recursiveResize=0;outlineConnect=0;portConstraint=eastwest;newEdgeStyle={&quot;curved&quot;:0,&quot;rounded&quot;:0};" vertex="1" parent="1">
          <mxGeometry x="2905" y="92" width="100" height="290" as="geometry" />
        </mxCell>
        <mxCell id="HZk4rTwjZ4kwQyeEV5jg-75" value="" style="html=1;points=[[0,0,0,0,5],[0,1,0,0,-5],[1,0,0,0,5],[1,1,0,0,-5]];perimeter=orthogonalPerimeter;outlineConnect=0;targetShapes=umlLifeline;portConstraint=eastwest;newEdgeStyle={&quot;curved&quot;:0,&quot;rounded&quot;:0};" vertex="1" parent="HZk4rTwjZ4kwQyeEV5jg-74">
          <mxGeometry x="40" y="250" width="10" height="30" as="geometry" />
        </mxCell>
        <mxCell id="HZk4rTwjZ4kwQyeEV5jg-76" value="dispatch" style="html=1;verticalAlign=bottom;startArrow=oval;endArrow=block;startSize=8;curved=0;rounded=0;exitX=1;exitY=1;exitDx=0;exitDy=-5;exitPerimeter=0;" edge="1" parent="1" source="HZk4rTwjZ4kwQyeEV5jg-71" target="HZk4rTwjZ4kwQyeEV5jg-75">
          <mxGeometry relative="1" as="geometry">
            <mxPoint x="2875" y="327" as="sourcePoint" />
            <Array as="points">
              <mxPoint x="2905" y="357" />
            </Array>
          </mxGeometry>
        </mxCell>
        <mxCell id="HZk4rTwjZ4kwQyeEV5jg-78" value="client browser" style="shape=umlLifeline;perimeter=lifelinePerimeter;whiteSpace=wrap;html=1;container=1;dropTarget=0;collapsible=0;recursiveResize=0;outlineConnect=0;portConstraint=eastwest;newEdgeStyle={&quot;curved&quot;:0,&quot;rounded&quot;:0};" vertex="1" parent="1">
          <mxGeometry x="30" y="430" width="100" height="300" as="geometry" />
        </mxCell>
        <mxCell id="FZVT0EkLdWm2Whr8OK7D-2" value="" style="html=1;points=[[0,0,0,0,5],[0,1,0,0,-5],[1,0,0,0,5],[1,1,0,0,-5]];perimeter=orthogonalPerimeter;outlineConnect=0;targetShapes=umlLifeline;portConstraint=eastwest;newEdgeStyle={&quot;curved&quot;:0,&quot;rounded&quot;:0};" vertex="1" parent="HZk4rTwjZ4kwQyeEV5jg-78">
          <mxGeometry x="45" y="80" width="10" height="190" as="geometry" />
        </mxCell>
        <mxCell id="HZk4rTwjZ4kwQyeEV5jg-79" value="api gateway" style="shape=umlLifeline;perimeter=lifelinePerimeter;whiteSpace=wrap;html=1;container=1;dropTarget=0;collapsible=0;recursiveResize=0;outlineConnect=0;portConstraint=eastwest;newEdgeStyle={&quot;curved&quot;:0,&quot;rounded&quot;:0};" vertex="1" parent="1">
          <mxGeometry x="140" y="430" width="100" height="300" as="geometry" />
        </mxCell>
        <mxCell id="FZVT0EkLdWm2Whr8OK7D-3" value="" style="html=1;points=[[0,0,0,0,5],[0,1,0,0,-5],[1,0,0,0,5],[1,1,0,0,-5]];perimeter=orthogonalPerimeter;outlineConnect=0;targetShapes=umlLifeline;portConstraint=eastwest;newEdgeStyle={&quot;curved&quot;:0,&quot;rounded&quot;:0};" vertex="1" parent="HZk4rTwjZ4kwQyeEV5jg-79">
          <mxGeometry x="45" y="90" width="10" height="150" as="geometry" />
        </mxCell>
        <mxCell id="FZVT0EkLdWm2Whr8OK7D-12" value="" style="html=1;points=[[0,0,0,0,5],[0,1,0,0,-5],[1,0,0,0,5],[1,1,0,0,-5]];perimeter=orthogonalPerimeter;outlineConnect=0;targetShapes=umlLifeline;portConstraint=eastwest;newEdgeStyle={&quot;curved&quot;:0,&quot;rounded&quot;:0};" vertex="1" parent="HZk4rTwjZ4kwQyeEV5jg-79">
          <mxGeometry x="55" y="100" width="10" height="40" as="geometry" />
        </mxCell>
        <mxCell id="FZVT0EkLdWm2Whr8OK7D-13" value="checkAuth" style="html=1;align=left;spacingLeft=2;endArrow=block;rounded=0;edgeStyle=orthogonalEdgeStyle;curved=0;rounded=0;" edge="1" parent="HZk4rTwjZ4kwQyeEV5jg-79">
          <mxGeometry x="-0.75" y="10" relative="1" as="geometry">
            <mxPoint x="60" y="110" as="sourcePoint" />
            <Array as="points">
              <mxPoint x="60" y="110" />
              <mxPoint x="90" y="110" />
              <mxPoint x="90" y="130" />
            </Array>
            <mxPoint x="60" y="130" as="targetPoint" />
            <mxPoint as="offset" />
          </mxGeometry>
        </mxCell>
        <mxCell id="HZk4rTwjZ4kwQyeEV5jg-80" value="&lt;div&gt;battle&lt;/div&gt;&lt;div&gt;service&lt;/div&gt;" style="shape=umlLifeline;perimeter=lifelinePerimeter;whiteSpace=wrap;html=1;container=1;dropTarget=0;collapsible=0;recursiveResize=0;outlineConnect=0;portConstraint=eastwest;newEdgeStyle={&quot;curved&quot;:0,&quot;rounded&quot;:0};" vertex="1" parent="1">
          <mxGeometry x="250" y="430" width="100" height="300" as="geometry" />
        </mxCell>
        <mxCell id="FZVT0EkLdWm2Whr8OK7D-6" value="" style="html=1;points=[[0,0,0,0,5],[0,1,0,0,-5],[1,0,0,0,5],[1,1,0,0,-5]];perimeter=orthogonalPerimeter;outlineConnect=0;targetShapes=umlLifeline;portConstraint=eastwest;newEdgeStyle={&quot;curved&quot;:0,&quot;rounded&quot;:0};" vertex="1" parent="HZk4rTwjZ4kwQyeEV5jg-80">
          <mxGeometry x="50" y="120" width="10" height="120" as="geometry" />
        </mxCell>
        <mxCell id="HZk4rTwjZ4kwQyeEV5jg-81" value="message broker" style="shape=umlLifeline;perimeter=lifelinePerimeter;whiteSpace=wrap;html=1;container=1;dropTarget=0;collapsible=0;recursiveResize=0;outlineConnect=0;portConstraint=eastwest;newEdgeStyle={&quot;curved&quot;:0,&quot;rounded&quot;:0};" vertex="1" parent="1">
          <mxGeometry x="355" y="430" width="100" height="300" as="geometry" />
        </mxCell>
        <mxCell id="FZVT0EkLdWm2Whr8OK7D-16" value="" style="html=1;points=[[0,0,0,0,5],[0,1,0,0,-5],[1,0,0,0,5],[1,1,0,0,-5]];perimeter=orthogonalPerimeter;outlineConnect=0;targetShapes=umlLifeline;portConstraint=eastwest;newEdgeStyle={&quot;curved&quot;:0,&quot;rounded&quot;:0};" vertex="1" parent="HZk4rTwjZ4kwQyeEV5jg-81">
          <mxGeometry x="45" y="120" width="10" height="80" as="geometry" />
        </mxCell>
        <mxCell id="HZk4rTwjZ4kwQyeEV5jg-82" value="&lt;div&gt;group&lt;/div&gt;&lt;div&gt;service&lt;br&gt;&lt;/div&gt;" style="shape=umlLifeline;perimeter=lifelinePerimeter;whiteSpace=wrap;html=1;container=1;dropTarget=0;collapsible=0;recursiveResize=0;outlineConnect=0;portConstraint=eastwest;newEdgeStyle={&quot;curved&quot;:0,&quot;rounded&quot;:0};" vertex="1" parent="1">
          <mxGeometry x="460" y="430" width="100" height="300" as="geometry" />
        </mxCell>
        <mxCell id="FZVT0EkLdWm2Whr8OK7D-1" value="join battle" style="text;html=1;align=center;verticalAlign=middle;resizable=0;points=[];autosize=1;strokeColor=none;fillColor=none;" vertex="1" parent="1">
          <mxGeometry y="378" width="80" height="30" as="geometry" />
        </mxCell>
        <mxCell id="FZVT0EkLdWm2Whr8OK7D-4" value="dispatch" style="html=1;verticalAlign=bottom;endArrow=block;curved=0;rounded=0;entryX=0;entryY=0;entryDx=0;entryDy=5;" edge="1" parent="1" source="HZk4rTwjZ4kwQyeEV5jg-78" target="FZVT0EkLdWm2Whr8OK7D-3">
          <mxGeometry relative="1" as="geometry">
            <mxPoint x="110" y="565" as="sourcePoint" />
          </mxGeometry>
        </mxCell>
        <mxCell id="FZVT0EkLdWm2Whr8OK7D-5" value="return" style="html=1;verticalAlign=bottom;endArrow=open;dashed=1;endSize=8;curved=0;rounded=0;exitX=0;exitY=1;exitDx=0;exitDy=-5;" edge="1" parent="1" source="FZVT0EkLdWm2Whr8OK7D-3" target="HZk4rTwjZ4kwQyeEV5jg-78">
          <mxGeometry relative="1" as="geometry">
            <mxPoint x="110" y="635" as="targetPoint" />
          </mxGeometry>
        </mxCell>
        <mxCell id="FZVT0EkLdWm2Whr8OK7D-7" value="uri" style="html=1;verticalAlign=bottom;endArrow=block;curved=0;rounded=0;" edge="1" parent="1" source="FZVT0EkLdWm2Whr8OK7D-3" target="FZVT0EkLdWm2Whr8OK7D-6">
          <mxGeometry relative="1" as="geometry">
            <mxPoint x="230" y="555" as="sourcePoint" />
            <Array as="points">
              <mxPoint x="240" y="570" />
            </Array>
          </mxGeometry>
        </mxCell>
        <mxCell id="FZVT0EkLdWm2Whr8OK7D-14" value="&lt;div&gt;notication&lt;/div&gt;&lt;div&gt;service&lt;br&gt;&lt;/div&gt;" style="shape=umlLifeline;perimeter=lifelinePerimeter;whiteSpace=wrap;html=1;container=1;dropTarget=0;collapsible=0;recursiveResize=0;outlineConnect=0;portConstraint=eastwest;newEdgeStyle={&quot;curved&quot;:0,&quot;rounded&quot;:0};" vertex="1" parent="1">
          <mxGeometry x="570" y="430" width="100" height="300" as="geometry" />
        </mxCell>
        <mxCell id="FZVT0EkLdWm2Whr8OK7D-17" value="" style="html=1;points=[[0,0,0,0,5],[0,1,0,0,-5],[1,0,0,0,5],[1,1,0,0,-5]];perimeter=orthogonalPerimeter;outlineConnect=0;targetShapes=umlLifeline;portConstraint=eastwest;newEdgeStyle={&quot;curved&quot;:0,&quot;rounded&quot;:0};" vertex="1" parent="FZVT0EkLdWm2Whr8OK7D-14">
          <mxGeometry x="45" y="120" width="10" height="80" as="geometry" />
        </mxCell>
        <mxCell id="FZVT0EkLdWm2Whr8OK7D-15" value="write(groupTopic, msg)" style="html=1;verticalAlign=bottom;endArrow=open;curved=0;rounded=0;endFill=0;" edge="1" parent="1">
          <mxGeometry x="0.3333" y="20" width="80" relative="1" as="geometry">
            <mxPoint x="310" y="570" as="sourcePoint" />
            <mxPoint x="400" y="570" as="targetPoint" />
            <mxPoint as="offset" />
          </mxGeometry>
        </mxCell>
        <mxCell id="FZVT0EkLdWm2Whr8OK7D-18" value="read(groupTopic)" style="html=1;verticalAlign=bottom;endArrow=block;curved=0;rounded=0;" edge="1" parent="1" source="FZVT0EkLdWm2Whr8OK7D-14" target="FZVT0EkLdWm2Whr8OK7D-16">
          <mxGeometry width="80" relative="1" as="geometry">
            <mxPoint x="590" y="560" as="sourcePoint" />
            <mxPoint x="670" y="560" as="targetPoint" />
          </mxGeometry>
        </mxCell>
        <mxCell id="FZVT0EkLdWm2Whr8OK7D-19" value="msg" style="html=1;verticalAlign=bottom;endArrow=open;dashed=1;endSize=8;curved=0;rounded=0;" edge="1" parent="1" source="FZVT0EkLdWm2Whr8OK7D-16" target="FZVT0EkLdWm2Whr8OK7D-17">
          <mxGeometry relative="1" as="geometry">
            <mxPoint x="670" y="560" as="sourcePoint" />
            <mxPoint x="590" y="560" as="targetPoint" />
            <Array as="points">
              <mxPoint x="520" y="610" />
            </Array>
          </mxGeometry>
        </mxCell>
        <mxCell id="FZVT0EkLdWm2Whr8OK7D-8" value="return" style="html=1;verticalAlign=bottom;endArrow=open;dashed=1;endSize=8;curved=0;rounded=0;" edge="1" parent="1" source="FZVT0EkLdWm2Whr8OK7D-6" target="HZk4rTwjZ4kwQyeEV5jg-79">
          <mxGeometry relative="1" as="geometry">
            <mxPoint x="230" y="610" as="targetPoint" />
            <mxPoint x="300" y="610" as="sourcePoint" />
            <Array as="points">
              <mxPoint x="240" y="650" />
            </Array>
          </mxGeometry>
        </mxCell>
        <mxCell id="FZVT0EkLdWm2Whr8OK7D-20" value="???" style="text;html=1;align=center;verticalAlign=middle;resizable=0;points=[];autosize=1;strokeColor=none;fillColor=none;" vertex="1" parent="1">
          <mxGeometry x="490" y="398" width="40" height="30" as="geometry" />
        </mxCell>
        <mxCell id="FZVT0EkLdWm2Whr8OK7D-21" value="client browser" style="shape=umlLifeline;perimeter=lifelinePerimeter;whiteSpace=wrap;html=1;container=1;dropTarget=0;collapsible=0;recursiveResize=0;outlineConnect=0;portConstraint=eastwest;newEdgeStyle={&quot;curved&quot;:0,&quot;rounded&quot;:0};" vertex="1" parent="1">
          <mxGeometry x="920" y="430" width="100" height="300" as="geometry" />
        </mxCell>
        <mxCell id="FZVT0EkLdWm2Whr8OK7D-35" value="" style="html=1;points=[[0,0,0,0,5],[0,1,0,0,-5],[1,0,0,0,5],[1,1,0,0,-5]];perimeter=orthogonalPerimeter;outlineConnect=0;targetShapes=umlLifeline;portConstraint=eastwest;newEdgeStyle={&quot;curved&quot;:0,&quot;rounded&quot;:0};" vertex="1" parent="FZVT0EkLdWm2Whr8OK7D-21">
          <mxGeometry x="45" y="70" width="10" height="160" as="geometry" />
        </mxCell>
        <mxCell id="FZVT0EkLdWm2Whr8OK7D-22" value="api gateway" style="shape=umlLifeline;perimeter=lifelinePerimeter;whiteSpace=wrap;html=1;container=1;dropTarget=0;collapsible=0;recursiveResize=0;outlineConnect=0;portConstraint=eastwest;newEdgeStyle={&quot;curved&quot;:0,&quot;rounded&quot;:0};" vertex="1" parent="1">
          <mxGeometry x="1040" y="430" width="100" height="300" as="geometry" />
        </mxCell>
        <mxCell id="FZVT0EkLdWm2Whr8OK7D-36" value="" style="html=1;points=[[0,0,0,0,5],[0,1,0,0,-5],[1,0,0,0,5],[1,1,0,0,-5]];perimeter=orthogonalPerimeter;outlineConnect=0;targetShapes=umlLifeline;portConstraint=eastwest;newEdgeStyle={&quot;curved&quot;:0,&quot;rounded&quot;:0};" vertex="1" parent="FZVT0EkLdWm2Whr8OK7D-22">
          <mxGeometry x="45" y="70" width="10" height="150" as="geometry" />
        </mxCell>
        <mxCell id="FZVT0EkLdWm2Whr8OK7D-23" value="user service" style="shape=umlLifeline;perimeter=lifelinePerimeter;whiteSpace=wrap;html=1;container=1;dropTarget=0;collapsible=0;recursiveResize=0;outlineConnect=0;portConstraint=eastwest;newEdgeStyle={&quot;curved&quot;:0,&quot;rounded&quot;:0};" vertex="1" parent="1">
          <mxGeometry x="1160" y="430" width="100" height="300" as="geometry" />
        </mxCell>
        <mxCell id="FZVT0EkLdWm2Whr8OK7D-39" value="" style="html=1;points=[[0,0,0,0,5],[0,1,0,0,-5],[1,0,0,0,5],[1,1,0,0,-5]];perimeter=orthogonalPerimeter;outlineConnect=0;targetShapes=umlLifeline;portConstraint=eastwest;newEdgeStyle={&quot;curved&quot;:0,&quot;rounded&quot;:0};" vertex="1" parent="FZVT0EkLdWm2Whr8OK7D-23">
          <mxGeometry x="45" y="90" width="10" height="120" as="geometry" />
        </mxCell>
        <mxCell id="FZVT0EkLdWm2Whr8OK7D-24" value="data dbms" style="shape=umlLifeline;perimeter=lifelinePerimeter;whiteSpace=wrap;html=1;container=1;dropTarget=0;collapsible=0;recursiveResize=0;outlineConnect=0;portConstraint=eastwest;newEdgeStyle={&quot;curved&quot;:0,&quot;rounded&quot;:0};" vertex="1" parent="1">
          <mxGeometry x="1280" y="430" width="100" height="300" as="geometry" />
        </mxCell>
        <mxCell id="FZVT0EkLdWm2Whr8OK7D-42" value="" style="html=1;points=[[0,0,0,0,5],[0,1,0,0,-5],[1,0,0,0,5],[1,1,0,0,-5]];perimeter=orthogonalPerimeter;outlineConnect=0;targetShapes=umlLifeline;portConstraint=eastwest;newEdgeStyle={&quot;curved&quot;:0,&quot;rounded&quot;:0};" vertex="1" parent="FZVT0EkLdWm2Whr8OK7D-24">
          <mxGeometry x="45" y="100" width="10" height="80" as="geometry" />
        </mxCell>
        <mxCell id="FZVT0EkLdWm2Whr8OK7D-25" value="data dbms" style="shape=umlLifeline;perimeter=lifelinePerimeter;whiteSpace=wrap;html=1;container=1;dropTarget=0;collapsible=0;recursiveResize=0;outlineConnect=0;portConstraint=eastwest;newEdgeStyle={&quot;curved&quot;:0,&quot;rounded&quot;:0};" vertex="1" parent="1">
          <mxGeometry x="680" y="430" width="100" height="300" as="geometry" />
        </mxCell>
        <mxCell id="FZVT0EkLdWm2Whr8OK7D-27" value="" style="html=1;points=[[0,0,0,0,5],[0,1,0,0,-5],[1,0,0,0,5],[1,1,0,0,-5]];perimeter=orthogonalPerimeter;outlineConnect=0;targetShapes=umlLifeline;portConstraint=eastwest;newEdgeStyle={&quot;curved&quot;:0,&quot;rounded&quot;:0};" vertex="1" parent="FZVT0EkLdWm2Whr8OK7D-25">
          <mxGeometry x="45" y="180" width="10" height="80" as="geometry" />
        </mxCell>
        <mxCell id="FZVT0EkLdWm2Whr8OK7D-26" value="dispatch" style="html=1;verticalAlign=bottom;endArrow=block;curved=0;rounded=0;" edge="1" parent="1" source="FZVT0EkLdWm2Whr8OK7D-6" target="FZVT0EkLdWm2Whr8OK7D-25">
          <mxGeometry width="80" relative="1" as="geometry">
            <mxPoint x="530" y="510" as="sourcePoint" />
            <mxPoint x="610" y="510" as="targetPoint" />
            <Array as="points">
              <mxPoint x="520" y="640" />
            </Array>
          </mxGeometry>
        </mxCell>
        <mxCell id="FZVT0EkLdWm2Whr8OK7D-29" value="return" style="html=1;verticalAlign=bottom;endArrow=open;dashed=1;endSize=8;curved=0;rounded=0;" edge="1" parent="1" source="FZVT0EkLdWm2Whr8OK7D-25" target="FZVT0EkLdWm2Whr8OK7D-6">
          <mxGeometry relative="1" as="geometry">
            <mxPoint x="610" y="510" as="sourcePoint" />
            <mxPoint x="530" y="510" as="targetPoint" />
            <Array as="points">
              <mxPoint x="510" y="660" />
            </Array>
          </mxGeometry>
        </mxCell>
        <mxCell id="FZVT0EkLdWm2Whr8OK7D-30" value="battle service" style="shape=umlLifeline;perimeter=lifelinePerimeter;whiteSpace=wrap;html=1;container=1;dropTarget=0;collapsible=0;recursiveResize=0;outlineConnect=0;portConstraint=eastwest;newEdgeStyle={&quot;curved&quot;:0,&quot;rounded&quot;:0};" vertex="1" parent="1">
          <mxGeometry x="1600" y="40" width="100" height="300" as="geometry" />
        </mxCell>
        <mxCell id="FZVT0EkLdWm2Whr8OK7D-53" value="" style="html=1;points=[[0,0,0,0,5],[0,1,0,0,-5],[1,0,0,0,5],[1,1,0,0,-5]];perimeter=orthogonalPerimeter;outlineConnect=0;targetShapes=umlLifeline;portConstraint=eastwest;newEdgeStyle={&quot;curved&quot;:0,&quot;rounded&quot;:0};" vertex="1" parent="FZVT0EkLdWm2Whr8OK7D-30">
          <mxGeometry x="45" y="70" width="10" height="210" as="geometry" />
        </mxCell>
        <mxCell id="FZVT0EkLdWm2Whr8OK7D-31" value="message broker" style="shape=umlLifeline;perimeter=lifelinePerimeter;whiteSpace=wrap;html=1;container=1;dropTarget=0;collapsible=0;recursiveResize=0;outlineConnect=0;portConstraint=eastwest;newEdgeStyle={&quot;curved&quot;:0,&quot;rounded&quot;:0};" vertex="1" parent="1">
          <mxGeometry x="1720" y="40" width="100" height="300" as="geometry" />
        </mxCell>
        <mxCell id="FZVT0EkLdWm2Whr8OK7D-54" value="" style="html=1;points=[[0,0,0,0,5],[0,1,0,0,-5],[1,0,0,0,5],[1,1,0,0,-5]];perimeter=orthogonalPerimeter;outlineConnect=0;targetShapes=umlLifeline;portConstraint=eastwest;newEdgeStyle={&quot;curved&quot;:0,&quot;rounded&quot;:0};" vertex="1" parent="FZVT0EkLdWm2Whr8OK7D-31">
          <mxGeometry x="45" y="90" width="10" height="80" as="geometry" />
        </mxCell>
        <mxCell id="FZVT0EkLdWm2Whr8OK7D-32" value="login" style="text;html=1;align=center;verticalAlign=middle;resizable=0;points=[];autosize=1;strokeColor=none;fillColor=none;" vertex="1" parent="1">
          <mxGeometry x="915" y="368" width="50" height="30" as="geometry" />
        </mxCell>
        <mxCell id="FZVT0EkLdWm2Whr8OK7D-33" value="create repo" style="text;html=1;align=center;verticalAlign=middle;resizable=0;points=[];autosize=1;strokeColor=none;fillColor=none;" vertex="1" parent="1">
          <mxGeometry x="1590" y="-2" width="90" height="30" as="geometry" />
        </mxCell>
        <mxCell id="FZVT0EkLdWm2Whr8OK7D-34" value="view battle leaderboard" style="text;html=1;align=center;verticalAlign=middle;resizable=0;points=[];autosize=1;strokeColor=none;fillColor=none;" vertex="1" parent="1">
          <mxGeometry x="1425" y="398" width="150" height="30" as="geometry" />
        </mxCell>
        <mxCell id="FZVT0EkLdWm2Whr8OK7D-37" value="dispatch" style="html=1;verticalAlign=bottom;endArrow=block;curved=0;rounded=0;entryX=0;entryY=0;entryDx=0;entryDy=5;" edge="1" parent="1" source="FZVT0EkLdWm2Whr8OK7D-21" target="FZVT0EkLdWm2Whr8OK7D-36">
          <mxGeometry relative="1" as="geometry">
            <mxPoint x="1010" y="505" as="sourcePoint" />
          </mxGeometry>
        </mxCell>
        <mxCell id="FZVT0EkLdWm2Whr8OK7D-38" value="return" style="html=1;verticalAlign=bottom;endArrow=open;dashed=1;endSize=8;curved=0;rounded=0;exitX=0;exitY=1;exitDx=0;exitDy=-5;" edge="1" parent="1" source="FZVT0EkLdWm2Whr8OK7D-36" target="FZVT0EkLdWm2Whr8OK7D-35">
          <mxGeometry relative="1" as="geometry">
            <mxPoint x="1010" y="575" as="targetPoint" />
          </mxGeometry>
        </mxCell>
        <mxCell id="FZVT0EkLdWm2Whr8OK7D-40" value="dispatch" style="html=1;verticalAlign=bottom;endArrow=block;curved=0;rounded=0;entryX=0;entryY=0;entryDx=0;entryDy=5;" edge="1" parent="1" source="FZVT0EkLdWm2Whr8OK7D-36" target="FZVT0EkLdWm2Whr8OK7D-39">
          <mxGeometry relative="1" as="geometry">
            <mxPoint x="1130" y="525" as="sourcePoint" />
          </mxGeometry>
        </mxCell>
        <mxCell id="FZVT0EkLdWm2Whr8OK7D-41" value="return" style="html=1;verticalAlign=bottom;endArrow=open;dashed=1;endSize=8;curved=0;rounded=0;exitX=0;exitY=1;exitDx=0;exitDy=-5;" edge="1" parent="1" source="FZVT0EkLdWm2Whr8OK7D-39" target="FZVT0EkLdWm2Whr8OK7D-36">
          <mxGeometry relative="1" as="geometry">
            <mxPoint x="1130" y="595" as="targetPoint" />
          </mxGeometry>
        </mxCell>
        <mxCell id="FZVT0EkLdWm2Whr8OK7D-43" value="dispatch" style="html=1;verticalAlign=bottom;endArrow=block;curved=0;rounded=0;entryX=0;entryY=0;entryDx=0;entryDy=5;" edge="1" parent="1" source="FZVT0EkLdWm2Whr8OK7D-39" target="FZVT0EkLdWm2Whr8OK7D-42">
          <mxGeometry relative="1" as="geometry">
            <mxPoint x="1250" y="525" as="sourcePoint" />
          </mxGeometry>
        </mxCell>
        <mxCell id="FZVT0EkLdWm2Whr8OK7D-44" value="return" style="html=1;verticalAlign=bottom;endArrow=open;dashed=1;endSize=8;curved=0;rounded=0;exitX=0;exitY=1;exitDx=0;exitDy=-5;" edge="1" parent="1" source="FZVT0EkLdWm2Whr8OK7D-42" target="FZVT0EkLdWm2Whr8OK7D-39">
          <mxGeometry relative="1" as="geometry">
            <mxPoint x="1250" y="595" as="targetPoint" />
          </mxGeometry>
        </mxCell>
        <mxCell id="FZVT0EkLdWm2Whr8OK7D-45" value="github handler" style="shape=umlLifeline;perimeter=lifelinePerimeter;whiteSpace=wrap;html=1;container=1;dropTarget=0;collapsible=0;recursiveResize=0;outlineConnect=0;portConstraint=eastwest;newEdgeStyle={&quot;curved&quot;:0,&quot;rounded&quot;:0};" vertex="1" parent="1">
          <mxGeometry x="1840" y="40" width="100" height="300" as="geometry" />
        </mxCell>
        <mxCell id="FZVT0EkLdWm2Whr8OK7D-57" value="" style="html=1;points=[[0,0,0,0,5],[0,1,0,0,-5],[1,0,0,0,5],[1,1,0,0,-5]];perimeter=orthogonalPerimeter;outlineConnect=0;targetShapes=umlLifeline;portConstraint=eastwest;newEdgeStyle={&quot;curved&quot;:0,&quot;rounded&quot;:0};" vertex="1" parent="FZVT0EkLdWm2Whr8OK7D-45">
          <mxGeometry x="45" y="100" width="10" height="80" as="geometry" />
        </mxCell>
        <mxCell id="FZVT0EkLdWm2Whr8OK7D-47" value="GH" style="shape=umlLifeline;perimeter=lifelinePerimeter;whiteSpace=wrap;html=1;container=1;dropTarget=0;collapsible=0;recursiveResize=0;outlineConnect=0;portConstraint=eastwest;newEdgeStyle={&quot;curved&quot;:0,&quot;rounded&quot;:0};" vertex="1" parent="1">
          <mxGeometry x="1960" y="40" width="100" height="300" as="geometry" />
        </mxCell>
        <mxCell id="FZVT0EkLdWm2Whr8OK7D-61" value="" style="html=1;points=[[0,0,0,0,5],[0,1,0,0,-5],[1,0,0,0,5],[1,1,0,0,-5]];perimeter=orthogonalPerimeter;outlineConnect=0;targetShapes=umlLifeline;portConstraint=eastwest;newEdgeStyle={&quot;curved&quot;:0,&quot;rounded&quot;:0};" vertex="1" parent="FZVT0EkLdWm2Whr8OK7D-47">
          <mxGeometry x="45" y="130" width="10" height="80" as="geometry" />
        </mxCell>
        <mxCell id="FZVT0EkLdWm2Whr8OK7D-48" value="source dbms" style="shape=umlLifeline;perimeter=lifelinePerimeter;whiteSpace=wrap;html=1;container=1;dropTarget=0;collapsible=0;recursiveResize=0;outlineConnect=0;portConstraint=eastwest;newEdgeStyle={&quot;curved&quot;:0,&quot;rounded&quot;:0};" vertex="1" parent="1">
          <mxGeometry x="2075" y="40" width="100" height="300" as="geometry" />
        </mxCell>
        <mxCell id="FZVT0EkLdWm2Whr8OK7D-49" value="" style="html=1;points=[[0,0,0,0,5],[0,1,0,0,-5],[1,0,0,0,5],[1,1,0,0,-5]];perimeter=orthogonalPerimeter;outlineConnect=0;targetShapes=umlLifeline;portConstraint=eastwest;newEdgeStyle={&quot;curved&quot;:0,&quot;rounded&quot;:0};" vertex="1" parent="FZVT0EkLdWm2Whr8OK7D-48">
          <mxGeometry x="40" y="240" width="10" height="40" as="geometry" />
        </mxCell>
        <mxCell id="FZVT0EkLdWm2Whr8OK7D-50" value="addTestcases(testcases, battleID)" style="html=1;verticalAlign=bottom;endArrow=block;curved=0;rounded=0;" edge="1" parent="1" source="FZVT0EkLdWm2Whr8OK7D-53" target="FZVT0EkLdWm2Whr8OK7D-49">
          <mxGeometry relative="1" as="geometry">
            <mxPoint x="2045" y="245" as="sourcePoint" />
            <Array as="points" />
          </mxGeometry>
        </mxCell>
        <mxCell id="FZVT0EkLdWm2Whr8OK7D-51" value="return" style="html=1;verticalAlign=bottom;endArrow=open;dashed=1;endSize=8;curved=0;rounded=0;exitX=0;exitY=1;exitDx=0;exitDy=-5;" edge="1" parent="1" source="FZVT0EkLdWm2Whr8OK7D-49" target="FZVT0EkLdWm2Whr8OK7D-53">
          <mxGeometry relative="1" as="geometry">
            <mxPoint x="2045" y="315" as="targetPoint" />
          </mxGeometry>
        </mxCell>
        <mxCell id="FZVT0EkLdWm2Whr8OK7D-55" value="dispatch" style="html=1;verticalAlign=bottom;endArrow=open;curved=0;rounded=0;endFill=0;" edge="1" parent="1" source="FZVT0EkLdWm2Whr8OK7D-53" target="FZVT0EkLdWm2Whr8OK7D-54">
          <mxGeometry relative="1" as="geometry">
            <mxPoint x="1700" y="135" as="sourcePoint" />
            <Array as="points">
              <mxPoint x="1710" y="150" />
            </Array>
          </mxGeometry>
        </mxCell>
        <mxCell id="FZVT0EkLdWm2Whr8OK7D-62" value="dispatch" style="html=1;verticalAlign=bottom;endArrow=block;curved=0;rounded=0;" edge="1" parent="1">
          <mxGeometry width="80" relative="1" as="geometry">
            <mxPoint x="1885" y="160" as="sourcePoint" />
            <mxPoint x="1775" y="160" as="targetPoint" />
          </mxGeometry>
        </mxCell>
        <mxCell id="FZVT0EkLdWm2Whr8OK7D-63" value="return" style="html=1;verticalAlign=bottom;endArrow=open;dashed=1;endSize=8;curved=0;rounded=0;" edge="1" parent="1" source="FZVT0EkLdWm2Whr8OK7D-54" target="FZVT0EkLdWm2Whr8OK7D-57">
          <mxGeometry relative="1" as="geometry">
            <mxPoint x="1810" y="260" as="sourcePoint" />
            <mxPoint x="1730" y="260" as="targetPoint" />
            <Array as="points">
              <mxPoint x="1830" y="190" />
            </Array>
          </mxGeometry>
        </mxCell>
        <mxCell id="FZVT0EkLdWm2Whr8OK7D-64" value="dispatch" style="html=1;verticalAlign=bottom;endArrow=open;curved=0;rounded=0;endFill=0;" edge="1" parent="1" source="FZVT0EkLdWm2Whr8OK7D-57" target="FZVT0EkLdWm2Whr8OK7D-61">
          <mxGeometry x="0.1818" width="80" relative="1" as="geometry">
            <mxPoint x="1730" y="260" as="sourcePoint" />
            <mxPoint x="1810" y="260" as="targetPoint" />
            <Array as="points">
              <mxPoint x="1950" y="200" />
            </Array>
            <mxPoint as="offset" />
          </mxGeometry>
        </mxCell>
        <mxCell id="FZVT0EkLdWm2Whr8OK7D-65" value="client browser" style="shape=umlLifeline;perimeter=lifelinePerimeter;whiteSpace=wrap;html=1;container=1;dropTarget=0;collapsible=0;recursiveResize=0;outlineConnect=0;portConstraint=eastwest;newEdgeStyle={&quot;curved&quot;:0,&quot;rounded&quot;:0};" vertex="1" parent="1">
          <mxGeometry x="1590" y="470" width="100" height="300" as="geometry" />
        </mxCell>
        <mxCell id="FZVT0EkLdWm2Whr8OK7D-69" value="" style="html=1;points=[[0,0,0,0,5],[0,1,0,0,-5],[1,0,0,0,5],[1,1,0,0,-5]];perimeter=orthogonalPerimeter;outlineConnect=0;targetShapes=umlLifeline;portConstraint=eastwest;newEdgeStyle={&quot;curved&quot;:0,&quot;rounded&quot;:0};" vertex="1" parent="FZVT0EkLdWm2Whr8OK7D-65">
          <mxGeometry x="45" y="70" width="10" height="130" as="geometry" />
        </mxCell>
        <mxCell id="FZVT0EkLdWm2Whr8OK7D-66" value="api gateway" style="shape=umlLifeline;perimeter=lifelinePerimeter;whiteSpace=wrap;html=1;container=1;dropTarget=0;collapsible=0;recursiveResize=0;outlineConnect=0;portConstraint=eastwest;newEdgeStyle={&quot;curved&quot;:0,&quot;rounded&quot;:0};" vertex="1" parent="1">
          <mxGeometry x="1710" y="470" width="100" height="300" as="geometry" />
        </mxCell>
        <mxCell id="FZVT0EkLdWm2Whr8OK7D-70" value="" style="html=1;points=[[0,0,0,0,5],[0,1,0,0,-5],[1,0,0,0,5],[1,1,0,0,-5]];perimeter=orthogonalPerimeter;outlineConnect=0;targetShapes=umlLifeline;portConstraint=eastwest;newEdgeStyle={&quot;curved&quot;:0,&quot;rounded&quot;:0};" vertex="1" parent="FZVT0EkLdWm2Whr8OK7D-66">
          <mxGeometry x="45" y="70" width="10" height="110" as="geometry" />
        </mxCell>
        <mxCell id="FZVT0EkLdWm2Whr8OK7D-67" value="&lt;div&gt;leaderboard&lt;/div&gt;&lt;div&gt;service&lt;br&gt;&lt;/div&gt;" style="shape=umlLifeline;perimeter=lifelinePerimeter;whiteSpace=wrap;html=1;container=1;dropTarget=0;collapsible=0;recursiveResize=0;outlineConnect=0;portConstraint=eastwest;newEdgeStyle={&quot;curved&quot;:0,&quot;rounded&quot;:0};" vertex="1" parent="1">
          <mxGeometry x="1830" y="470" width="100" height="300" as="geometry" />
        </mxCell>
        <mxCell id="FZVT0EkLdWm2Whr8OK7D-73" value="" style="html=1;points=[[0,0,0,0,5],[0,1,0,0,-5],[1,0,0,0,5],[1,1,0,0,-5]];perimeter=orthogonalPerimeter;outlineConnect=0;targetShapes=umlLifeline;portConstraint=eastwest;newEdgeStyle={&quot;curved&quot;:0,&quot;rounded&quot;:0};" vertex="1" parent="FZVT0EkLdWm2Whr8OK7D-67">
          <mxGeometry x="45" y="80" width="10" height="80" as="geometry" />
        </mxCell>
        <mxCell id="FZVT0EkLdWm2Whr8OK7D-68" value="&lt;div&gt;data&lt;/div&gt;&lt;div&gt;dbms&lt;br&gt;&lt;/div&gt;" style="shape=umlLifeline;perimeter=lifelinePerimeter;whiteSpace=wrap;html=1;container=1;dropTarget=0;collapsible=0;recursiveResize=0;outlineConnect=0;portConstraint=eastwest;newEdgeStyle={&quot;curved&quot;:0,&quot;rounded&quot;:0};" vertex="1" parent="1">
          <mxGeometry x="1950" y="470" width="100" height="300" as="geometry" />
        </mxCell>
        <mxCell id="FZVT0EkLdWm2Whr8OK7D-77" value="" style="html=1;points=[[0,0,0,0,5],[0,1,0,0,-5],[1,0,0,0,5],[1,1,0,0,-5]];perimeter=orthogonalPerimeter;outlineConnect=0;targetShapes=umlLifeline;portConstraint=eastwest;newEdgeStyle={&quot;curved&quot;:0,&quot;rounded&quot;:0};" vertex="1" parent="FZVT0EkLdWm2Whr8OK7D-68">
          <mxGeometry x="45" y="90" width="10" height="60" as="geometry" />
        </mxCell>
        <mxCell id="FZVT0EkLdWm2Whr8OK7D-72" value="return" style="html=1;verticalAlign=bottom;endArrow=open;dashed=1;endSize=8;curved=0;rounded=0;exitX=0;exitY=1;exitDx=0;exitDy=-5;exitPerimeter=0;" edge="1" parent="1" source="FZVT0EkLdWm2Whr8OK7D-70" target="FZVT0EkLdWm2Whr8OK7D-69">
          <mxGeometry relative="1" as="geometry">
            <mxPoint x="1680" y="615" as="targetPoint" />
          </mxGeometry>
        </mxCell>
        <mxCell id="FZVT0EkLdWm2Whr8OK7D-71" value="dispatch" style="html=1;verticalAlign=bottom;endArrow=block;curved=0;rounded=0;entryX=0;entryY=0;entryDx=0;entryDy=5;" edge="1" parent="1" source="FZVT0EkLdWm2Whr8OK7D-69" target="FZVT0EkLdWm2Whr8OK7D-70">
          <mxGeometry relative="1" as="geometry">
            <mxPoint x="1680" y="545" as="sourcePoint" />
          </mxGeometry>
        </mxCell>
        <mxCell id="FZVT0EkLdWm2Whr8OK7D-74" value="dispatch" style="html=1;verticalAlign=bottom;endArrow=block;curved=0;rounded=0;entryX=0;entryY=0;entryDx=0;entryDy=5;" edge="1" parent="1" source="FZVT0EkLdWm2Whr8OK7D-70" target="FZVT0EkLdWm2Whr8OK7D-73">
          <mxGeometry relative="1" as="geometry">
            <mxPoint x="1805" y="545" as="sourcePoint" />
          </mxGeometry>
        </mxCell>
        <mxCell id="FZVT0EkLdWm2Whr8OK7D-75" value="return" style="html=1;verticalAlign=bottom;endArrow=open;dashed=1;endSize=8;curved=0;rounded=0;exitX=0;exitY=1;exitDx=0;exitDy=-5;" edge="1" parent="1" source="FZVT0EkLdWm2Whr8OK7D-73" target="FZVT0EkLdWm2Whr8OK7D-70">
          <mxGeometry relative="1" as="geometry">
            <mxPoint x="1805" y="615" as="targetPoint" />
          </mxGeometry>
        </mxCell>
        <mxCell id="FZVT0EkLdWm2Whr8OK7D-79" value="return" style="html=1;verticalAlign=bottom;endArrow=open;dashed=1;endSize=8;curved=0;rounded=0;exitX=0;exitY=1;exitDx=0;exitDy=-5;" edge="1" parent="1" source="FZVT0EkLdWm2Whr8OK7D-77" target="FZVT0EkLdWm2Whr8OK7D-73">
          <mxGeometry relative="1" as="geometry">
            <mxPoint x="1925" y="625" as="targetPoint" />
          </mxGeometry>
        </mxCell>
        <mxCell id="FZVT0EkLdWm2Whr8OK7D-78" value="dispatch" style="html=1;verticalAlign=bottom;endArrow=block;curved=0;rounded=0;entryX=0;entryY=0;entryDx=0;entryDy=5;" edge="1" parent="1" source="FZVT0EkLdWm2Whr8OK7D-73" target="FZVT0EkLdWm2Whr8OK7D-77">
          <mxGeometry relative="1" as="geometry">
            <mxPoint x="1925" y="555" as="sourcePoint" />
          </mxGeometry>
        </mxCell>
        <mxCell id="FZVT0EkLdWm2Whr8OK7D-80" value="message broker" style="shape=umlLifeline;perimeter=lifelinePerimeter;whiteSpace=wrap;html=1;container=1;dropTarget=0;collapsible=0;recursiveResize=0;outlineConnect=0;portConstraint=eastwest;newEdgeStyle={&quot;curved&quot;:0,&quot;rounded&quot;:0};" vertex="1" parent="1">
          <mxGeometry x="530" y="40" width="80" height="300" as="geometry" />
        </mxCell>
        <mxCell id="FZVT0EkLdWm2Whr8OK7D-82" value="" style="html=1;points=[[0,0,0,0,5],[0,1,0,0,-5],[1,0,0,0,5],[1,1,0,0,-5]];perimeter=orthogonalPerimeter;outlineConnect=0;targetShapes=umlLifeline;portConstraint=eastwest;newEdgeStyle={&quot;curved&quot;:0,&quot;rounded&quot;:0};" vertex="1" parent="FZVT0EkLdWm2Whr8OK7D-80">
          <mxGeometry x="35" y="202" width="10" height="80" as="geometry" />
        </mxCell>
        <mxCell id="FZVT0EkLdWm2Whr8OK7D-81" value="notication service" style="shape=umlLifeline;perimeter=lifelinePerimeter;whiteSpace=wrap;html=1;container=1;dropTarget=0;collapsible=0;recursiveResize=0;outlineConnect=0;portConstraint=eastwest;newEdgeStyle={&quot;curved&quot;:0,&quot;rounded&quot;:0};" vertex="1" parent="1">
          <mxGeometry x="640" y="40" width="80" height="300" as="geometry" />
        </mxCell>
        <mxCell id="FZVT0EkLdWm2Whr8OK7D-83" value="" style="html=1;points=[[0,0,0,0,5],[0,1,0,0,-5],[1,0,0,0,5],[1,1,0,0,-5]];perimeter=orthogonalPerimeter;outlineConnect=0;targetShapes=umlLifeline;portConstraint=eastwest;newEdgeStyle={&quot;curved&quot;:0,&quot;rounded&quot;:0};" vertex="1" parent="FZVT0EkLdWm2Whr8OK7D-81">
          <mxGeometry x="35" y="210" width="10" height="80" as="geometry" />
        </mxCell>
        <mxCell id="FZVT0EkLdWm2Whr8OK7D-84" value="write(battleTopic,msg)" style="html=1;verticalAlign=bottom;endArrow=open;curved=0;rounded=0;endFill=0;" edge="1" parent="1" source="HZk4rTwjZ4kwQyeEV5jg-7">
          <mxGeometry width="80" relative="1" as="geometry">
            <mxPoint x="305" y="280" as="sourcePoint" />
            <mxPoint x="570" y="280" as="targetPoint" />
          </mxGeometry>
        </mxCell>
        <mxCell id="FZVT0EkLdWm2Whr8OK7D-85" value="read(battleTopic)" style="html=1;verticalAlign=bottom;endArrow=block;curved=0;rounded=0;" edge="1" parent="1" source="FZVT0EkLdWm2Whr8OK7D-83" target="FZVT0EkLdWm2Whr8OK7D-82">
          <mxGeometry width="80" relative="1" as="geometry">
            <mxPoint x="510" y="290" as="sourcePoint" />
            <mxPoint x="590" y="290" as="targetPoint" />
          </mxGeometry>
        </mxCell>
        <mxCell id="FZVT0EkLdWm2Whr8OK7D-86" value="msg" style="html=1;verticalAlign=bottom;endArrow=open;dashed=1;endSize=8;curved=0;rounded=0;" edge="1" parent="1">
          <mxGeometry relative="1" as="geometry">
            <mxPoint x="580" y="310" as="sourcePoint" />
            <mxPoint x="680" y="310" as="targetPoint" />
          </mxGeometry>
        </mxCell>
      </root>
    </mxGraphModel>
  </diagram>
</mxfile>
